<svg xmlns="http://www.w3.org/2000/svg" width="1600" height="1000" viewBox="0 0 1600 1000" role="img" aria-label="Ilustra??o de prote??o de condom?nio">
  <defs>
    <linearGradient id="sky2" x1="0" y1="0" x2="0" y2="1">
      <stop offset="0" stop-color="#043d51"/>
      <stop offset="1" stop-color="#02222d"/>
    </linearGradient>
    <linearGradient id="b1" x1="0" y1="0" x2="1" y2="1">
      <stop offset="0" stop-color="#166a83"/>
      <stop offset="1" stop-color="#043d51"/>
    </linearGradient>
  </defs>
  <rect width="1600" height="1000" fill="url(#sky2)"/>
  <g opacity="0.95">
    <rect x="250" y="380" width="260" height="620" rx="6" fill="url(#b1)"/>
    <rect x="560" y="280" width="300" height="720" rx="6" fill="#065672"/>
    <rect x="910" y="440" width="240" height="560" rx="6" fill="url(#b1)"/>
  </g>
  <g fill="#6cb6c7" opacity="0.28">
    <rect x="600" y="330" width="52" height="34" rx="2"/><rect x="680" y="330" width="52" height="34" rx="2"/><rect x="760" y="330" width="52" height="34" rx="2"/>
    <rect x="600" y="410" width="52" height="34" rx="2"/><rect x="680" y="410" width="52" height="34" rx="2"/><rect x="760" y="410" width="52" height="34" rx="2"/>
    <rect x="600" y="490" width="52" height="34" rx="2"/><rect x="680" y="490" width="52" height="34" rx="2"/><rect x="760" y="490" width="52" height="34" rx="2"/>
  </g>
  <g transform="translate(1120 240)">
    <path d="M120 0 L240 52 V150 C240 250 185 300 120 330 C55 300 0 250 0 150 V52 Z" fill="#0a6a83" opacity="0.9"/>
    <path d="M120 40 L200 76 V150 C200 222 162 258 120 280 C78 258 40 222 40 150 V76 Z" fill="#02222d" opacity="0.35"/>
    <path d="M84 158 l26 26 52 -60" fill="none" stroke="#ffffff" stroke-width="12" stroke-linecap="round" stroke-linejoin="round"/>
  </g>
</svg>
