<svg xmlns="http://www.w3.org/2000/svg" width="1600" height="1100" viewBox="0 0 1600 1100" role="img" aria-label="Ilustra??o de condom?nio moderno">
  <defs>
    <linearGradient id="sky" x1="0" y1="0" x2="0" y2="1">
      <stop offset="0" stop-color="#104555"/>
      <stop offset="1" stop-color="#082630"/>
    </linearGradient>
    <linearGradient id="glass" x1="0" y1="0" x2="1" y2="1">
      <stop offset="0" stop-color="#0f5567"/>
      <stop offset="1" stop-color="#103a46"/>
    </linearGradient>
    <linearGradient id="glass2" x1="0" y1="0" x2="1" y2="1">
      <stop offset="0" stop-color="#12667d"/>
      <stop offset="1" stop-color="#104555"/>
    </linearGradient>
  </defs>
  <rect width="1600" height="1100" fill="url(#sky)"/>
  <circle cx="1250" cy="230" r="150" fill="#22bfe9" opacity="0.12"/>
  <circle cx="1250" cy="230" r="90" fill="#67d8f6" opacity="0.14"/>
  <g opacity="0.95">
    <rect x="180" y="430" width="230" height="670" rx="6" fill="url(#glass)"/>
    <rect x="470" y="300" width="280" height="800" rx="6" fill="url(#glass2)"/>
    <rect x="810" y="470" width="210" height="630" rx="6" fill="url(#glass)"/>
    <rect x="1080" y="360" width="300" height="740" rx="6" fill="url(#glass2)"/>
  </g>
  <g fill="#67d8f6" opacity="0.28">
    <g>
      <rect x="205" y="470" width="40" height="26" rx="2"/><rect x="265" y="470" width="40" height="26" rx="2"/><rect x="325" y="470" width="40" height="26" rx="2"/>
      <rect x="205" y="530" width="40" height="26" rx="2"/><rect x="265" y="530" width="40" height="26" rx="2"/><rect x="325" y="530" width="40" height="26" rx="2"/>
      <rect x="205" y="590" width="40" height="26" rx="2"/><rect x="265" y="590" width="40" height="26" rx="2"/><rect x="325" y="590" width="40" height="26" rx="2"/>
      <rect x="205" y="650" width="40" height="26" rx="2"/><rect x="265" y="650" width="40" height="26" rx="2"/><rect x="325" y="650" width="40" height="26" rx="2"/>
    </g>
    <g>
      <rect x="500" y="340" width="46" height="30" rx="2"/><rect x="570" y="340" width="46" height="30" rx="2"/><rect x="640" y="340" width="46" height="30" rx="2"/><rect x="700" y="340" width="30" height="30" rx="2"/>
      <rect x="500" y="410" width="46" height="30" rx="2"/><rect x="570" y="410" width="46" height="30" rx="2"/><rect x="640" y="410" width="46" height="30" rx="2"/><rect x="700" y="410" width="30" height="30" rx="2"/>
      <rect x="500" y="480" width="46" height="30" rx="2"/><rect x="570" y="480" width="46" height="30" rx="2"/><rect x="640" y="480" width="46" height="30" rx="2"/><rect x="700" y="480" width="30" height="30" rx="2"/>
      <rect x="500" y="550" width="46" height="30" rx="2"/><rect x="570" y="550" width="46" height="30" rx="2"/><rect x="640" y="550" width="46" height="30" rx="2"/><rect x="700" y="550" width="30" height="30" rx="2"/>
    </g>
    <g>
      <rect x="1110" y="400" width="48" height="30" rx="2"/><rect x="1185" y="400" width="48" height="30" rx="2"/><rect x="1260" y="400" width="48" height="30" rx="2"/><rect x="1330" y="400" width="30" height="30" rx="2"/>
      <rect x="1110" y="470" width="48" height="30" rx="2"/><rect x="1185" y="470" width="48" height="30" rx="2"/><rect x="1260" y="470" width="48" height="30" rx="2"/><rect x="1330" y="470" width="30" height="30" rx="2"/>
      <rect x="1110" y="540" width="48" height="30" rx="2"/><rect x="1185" y="540" width="48" height="30" rx="2"/><rect x="1260" y="540" width="48" height="30" rx="2"/><rect x="1330" y="540" width="30" height="30" rx="2"/>
    </g>
  </g>
  <rect x="0" y="1040" width="1600" height="60" fill="#082630"/>
</svg>
